# AST/ASF file generated using VICON BodyLanguage
# -----------------------------------------------
:version 1.10
:name VICON
:units
  mass 1.0
  length 0.45
  angle deg
:documentation
   .ast/.asf automatically generated from VICON data using
   VICON BodyBuilder and BodyLanguage model FoxedUp or BRILLIANT.MOD
:root
   order TX TY TZ RX RY RZ
   axis XYZ
   position 0 0 0  
   orientation 0 0 0 
:bonedata
  begin
     id 1 
     name lhipjoint
     direction 0.610259 -0.730986 0.305356 
     length 2.50941 
     axis 0 0 0  XYZ
  end
  begin
     id 2 
     name lfemur
     direction 0.34202 -0.939693 0  
     length 7.48822  
     axis 0 0 20  XYZ
    dof rx ry rz
    limits (-160.0 20.0)
           (-70.0 70.0)
           (-60.0 70.0)
  end
  begin
     id 3 
     name ltibia
     direction 0.34202 -0.939693 0   
     length 7.60141   
     axis 0 0 20   XYZ
    dof rx
    limits (-10.0 170.0)
  end
  begin
     id 4 
     name lfoot
     direction 0.0673488 -0.185039 0.980421   
     length 2.04049   
     axis -90 7.62852e-016 20   XYZ
    dof rx rz
    limits (-45.0 90.0)
           (-70.0 20.0)
  end
  begin
     id 5 
     name ltoes
     direction 1.5356e-011 -4.21729e-011 1   
     length 1.02897   
     axis -90 7.62852e-016 20   XYZ
    dof rx
    limits (-90.0 20.0)
  end
  begin
     id 6 
     name rhipjoint
     direction -0.57612 -0.754205 0.315056   
     length 2.43216  
     axis 0 0 0  XYZ 
  end
  begin
     id 7 
     name rfemur
     direction -0.34202 -0.939693 0   
     length 7.42799   
     axis 0 0 -20   XYZ
    dof rx ry rz
    limits (-160.0 20.0)
           (-70.0 70.0)
           (-70.0 60.0)
  end
  begin
     id 8 
     name rtibia
     direction -0.34202 -0.939693 0   
     length 7.69484   
     axis 0 0 -20   XYZ
    dof rx
    limits (-10.0 170.0)
 end
 begin
     id 9 
     name rfoot
     direction -0.111837 -0.30727 0.945028   
     length 2.15769  
     axis -90 -7.62852e-016 -20   XYZ
    dof rx rz
    limits (-45.0 90.0)
           (-20.0 70.0)
  end
  begin
     id 10 
     name rtoes
     direction -1.53539e-011 -4.21878e-011 1   
     length 1.07391   
     axis -90 -7.62852e-016 -20   XYZ
    dof rx
    limits (-90.0 20.0)
  end
  begin
     id 11 
     name lowerback
     direction 0.00552624 0.990109 -0.140195   
     length 2.12403   
     axis 0 0 0   XYZ
    dof rx ry rz
    limits (-20.0 45.0)
           (-30.0 30.0)
           (-30.0 30.0)
  end
  begin
     id 12 
     name upperback
     direction 0.00361898 0.999976 -0.00584723   
     length 2.13232   
     axis 0 0 0   XYZ
    dof rx ry rz
    limits (-20.0 45.0)
           (-30.0 30.0)
           (-30.0 30.0)
  end
  begin
     id 13 
     name thorax
     direction -0.000331275 0.998253 0.0590847   
     length 2.17688   
     axis 0 0 0   XYZ
    dof rx ry rz
    limits (-20.0 45.0)
           (-30.0 30.0)
           (-30.0 30.0)
  end
  begin
     id 14 
     name lowerneck
     direction -0.0561561 0.979832 0.19177   
     length 1.64159   
     axis 0 0 0   XYZ
    dof rx ry rz
    limits (-20.0 45.0)
           (-30.0 30.0)
           (-30.0 30.0)
  end
  begin
     id 15 
     name upperneck
     direction 0.0827153 0.979385 -0.184293   
     length 1.68939   
     axis 0 0 0   XYZ
    dof rx ry rz
    limits (-20.0 45.0)
           (-30.0 30.0)
           (-30.0 30.0)
  end
  begin
     id 16
     name head
     direction 0.0278583 0.995936 -0.0856488  
     length 1.70207  
     axis 0 0 0   XYZ
    dof rx ry rz
    limits (-20.0 45.0)
           (-30.0 30.0)
           (-30.0 30.0)
  end
  begin
     id 17 
     name lclavicle
     direction 0.950993 0.301131 -0.0702275  
     length 3.41652  
     axis 0 0 0   XYZ
    dof ry rz
    limits (-20.0 10.0)
           (0.0 20.0)
  end
  begin
     id 18 
     name lhumerus
     direction 1 -4.48981e-011 -3.9662e-029   
     length 5.32955   
     axis 180 -30 -90   XYZ
    dof rx ry rz
    limits (-60.0 90.0)
           (-90.0 90.0)
           (-90.0 90.0)
  end
  begin
     id 19
     name lradius
     direction 1 -4.48925e-011 -9.0549e-027   
     length 3.69232   
     axis 180 -30 -90   XYZ
    dof rx
    limits (-10.0 170.0)
  end
  begin
     id 20
     name lwrist
     direction 1 -4.49007e-011 -1.49005e-026   
     length 1.84616   
     axis 9.0955e-015 90 90   XYZ
    dof ry
    limits (-180.0 0.0)
 end
  begin
     id 21 
     name lhand
     direction 1 -4.49016e-011 -2.98023e-026   
     length 0.536598   
     axis 1.90115e-014 90 90   XYZ
    dof rx rz
    limits (-90.0 90.0)
           (-45.0 45.0)
  end
  begin
     id 22 
     name lfingers
     direction 1 -4.48924e-011 -5.9578e-026   
     length 0.432619   
     axis 3.80223e-014 90 90   XYZ
    dof rx
    limits (0.0 90.0)
  end
  begin
     id 23
     name lthumb
     direction 0.707107 -6.34947e-011 0.707107   
     length 0.621157   
     axis -90 45 -3.84942e-014   XYZ
    dof rx rz
    limits (-45.0 45.0)
           (-45.0 45.0)
  end
  begin
     id 24 
     name rclavicle
     direction -0.955495 0.276497 -0.102848   
     length 3.36357  
     axis 0 0 0   XYZ 
    dof ry rz
    limits (-10.0 20.0)
           (-20.0 0.0)
  end
  begin
     id 25 
     name rhumerus
     direction -1 -4.48961e-011 3.30983e-027  
     length 5.23431   
     axis 180 30 90   XYZ
    dof rx ry rz
    limits (-90.0 60.0)
           (-90.0 90.0)
           (-90.0 90.0)
  end
  begin
     id 26 
     name rradius
     direction -1 -4.48965e-011 -6.63263e-027   
     length 3.55301   
     axis 180 30 90   XYZ
    dof rx
    limits (-10.0 170.0)
  end
  begin
     id 27 
     name rwrist
     direction -1 -4.48942e-011 -1.48958e-026   
     length 1.77651   
     axis 9.0955e-015 -90 -90   XYZ
    dof ry
    limits (-180.0 0.0)
  end
  begin
     id 28
     name rhand
     direction -1 -4.48977e-011 -2.97966e-026   
     length 0.772522   
     axis 1.90115e-014 -90 -90   XYZ
    dof rx rz
    limits (-90.0 90.0)
           (-45.0 45.0)
  end
  begin
     id 29
     name rfingers
     direction -1 -4.49135e-011 -5.96389e-026   
     length 0.622827   
     axis 3.80223e-014 -90 -90   XYZ
    dof rx
    limits (0.0 90.0)
  end
  begin
     id 30
     name rthumb
     direction -0.707107 -6.34969e-011 0.707107   
     length 0.894259   
     axis -90 -45 3.84942e-014   XYZ
    dof rx rz
    limits (-45.0 45.0)
           (-45.0 45.0)
  end
:hierarchy
  begin
    root lhipjoint rhipjoint lowerback
    lhipjoint lfemur
    lfemur ltibia
    ltibia lfoot
    lfoot ltoes
    rhipjoint rfemur
    rfemur rtibia
    rtibia rfoot
    rfoot rtoes
    lowerback upperback
    upperback thorax
    thorax lowerneck lclavicle rclavicle
    lowerneck upperneck
    upperneck head
    lclavicle lhumerus
    lhumerus lradius
    lradius lwrist
    lwrist lhand lthumb
    lhand lfingers
    rclavicle rhumerus
    rhumerus rradius
    rradius rwrist
    rwrist rhand rthumb
    rhand rfingers
  end

#!OML:ASF F:\VICON\USERDATA\INSTALL\rory3\rory3.ASF
:FULLY-SPECIFIED
:DEGREES
66
root -6.8576 18.0473 -6.39646 3.89763 51.7184 5.00503
lowerback 10.7576 1.62184 -3.11562
upperback 1.45306 1.80738 -0.213172
thorax -4.60201 0.956419 1.26735
lowerneck -15.6758 -6.63281 -12.0997
upperneck 34.7091 -7.92774 6.93514
head 15.7233 -3.8108 3.68203
rclavicle 3.56818e-014 -6.55989e-015
rhumerus -30.4519 -9.9199 -81.3738
rradius 32.9342
rwrist 5.91692
rhand -15.5001 9.23211
rfingers 7.12502
rthumb 10.6824 -20.4763
lclavicle 3.56818e-014 -6.55989e-015
lhumerus -30.2088 9.09655 82.0965
lradius 30.2166
lwrist -7.39813
lhand -18.019 28.1343
lfingers 7.12502
lthumb 8.25195 57.9532
rfemur -11.3012 -5.61022 16.1083
rtibia 61.4663
rfoot 4.86857 -3.84335
rtoes 7.81031
lfemur -2.53025 6.15489 -27.174
ltibia 7.52225
lfoot -2.37713 -10.5008
ltoes 10.0842
67
root -6.76924 18.0407 -6.34392 3.74465 51.7426 5.08971
lowerback 10.9173 1.57202 -3.06783
upperback 1.46934 1.74 -0.252774
thorax -4.6679 0.922903 1.2055
lowerneck -15.7524 -6.62418 -12.0278
upperneck 34.8762 -7.90975 6.87041
head 15.8135 -3.80123 3.64954
rclavicle -2.55935e-014 1.11319e-014
rhumerus -30.4006 -10.0051 -81.4205
rradius 33.0802
rwrist 5.83407
rhand -15.6958 9.23006
rfingers 7.12502
rthumb 10.4936 -20.488
lclavicle -2.55935e-014 1.11319e-014
lhumerus -30.2564 8.46502 82.2174
lradius 30.7609
lwrist -6.48774
lhand -18.477 28.4432
lfingers 7.12502
lthumb 7.80999 58.279
rfemur -12.017 -5.73779 15.9824
rtibia 61.8615
rfoot 3.79112 -4.21199
rtoes 7.89214
lfemur -2.08096 6.01682 -27.244
ltibia 7.92211
lfoot -2.80564 -10.1984
ltoes 11.8349
68
root -6.68287 18.0283 -6.2859 3.69236 51.762 5.20871
lowerback 10.8945 1.47202 -3.17297
upperback 1.52373 1.59818 -0.24141
thorax -4.59491 0.853748 1.29915
lowerneck -15.8548 -6.49594 -11.9152
upperneck 34.9283 -7.70182 6.75603
head 15.8215 -3.71366 3.62023
rclavicle -1.16041e-014 5.96354e-015
rhumerus -30.3157 -9.84857 -81.4718
rradius 33.3032
rwrist 5.80284
rhand -16.0486 9.14736
rfingers 7.12502
rthumb 10.1533 -20.5877
lclavicle -1.16041e-014 5.96354e-015
lhumerus -30.1709 8.07013 82.2756
lradius 31.1783
lwrist -5.76181
lhand -19.2217 27.7215
lfingers 7.12502
lthumb 7.09111 57.5827
rfemur -12.8018 -5.91682 15.8591
rtibia 62.1471
rfoot 2.64677 -4.41664
rtoes 6.89428
lfemur -1.76394 5.87453 -27.3274
ltibia 8.3428
lfoot -3.31892 -10.0411
ltoes 10.9436
69
root -6.59716 18.0162 -6.23254 3.59916 51.7411 5.17323
lowerback 10.8266 1.37405 -3.20491
upperback 1.55999 1.47143 -0.16917
thorax -4.51584 0.790952 1.41334
lowerneck -15.9336 -6.37488 -11.8533
upperneck 34.9045 -7.49837 6.66312
head 15.7918 -3.63248 3.60567
rclavicle -6.26917e-014 -5.96354e-016
rhumerus -30.1924 -9.63253 -81.4696
rradius 33.5711
rwrist 5.64377
rhand -16.077 9.10552
rfingers 7.12502
rthumb 10.1259 -20.6308
lclavicle -6.26917e-014 -5.96354e-016
lhumerus -29.9737 8.15412 82.2311
lradius 31.3811
lwrist -5.44277
lhand -19.5647 27.1632
lfingers 7.12502
lthumb 6.76007 57.0352
rfemur -13.6622 -6.06172 15.8338
rtibia 62.2945
rfoot 1.50398 -4.56318
rtoes 6.31632
lfemur -1.57465 5.76693 -27.344
ltibia 8.84003
lfoot -3.91289 -9.87539
ltoes 9.76168
70
root -6.50825 18.0057 -6.19072 3.66969 51.7395 5.30123
lowerback 10.8395 1.30922 -3.18665
upperback 1.54999 1.38671 -0.170335
thorax -4.52886 0.749051 1.41403
lowerneck -15.9924 -6.34708 -11.8343
upperneck 34.898 -7.46383 6.67555
head 15.7971 -3.61353 3.61319
rclavicle 1.04113e-014 4.96962e-015
rhumerus -30.1644 -9.5495 -81.4539
rradius 33.8756
rwrist 5.39532
rhand -15.7425 9.1906
rfingers 7.12502
rthumb 10.4485 -20.5298
lclavicle 1.04113e-014 4.96962e-015
lhumerus -29.832 7.95334 82.249
lradius 31.6788
lwrist -4.91117
lhand -19.3567 26.7863
lfingers 7.12502
lthumb 6.96083 56.6519
rfemur -14.5253 -6.21846 15.6439
rtibia 62.3127
rfoot 0.339333 -4.48797
rtoes 5.24709
lfemur -1.50829 5.62616 -27.5049
ltibia 9.54972
lfoot -4.61028 -9.62837
ltoes 9.2744
71
root -6.42214 17.9922 -6.14586 3.59272 51.8255 5.19989
lowerback 10.9231 1.20496 -2.98135
upperback 1.46831 1.26853 -0.136425
thorax -4.6514 0.689406 1.34901
lowerneck -16.0543 -6.32338 -11.9693
upperneck 34.9627 -7.40889 6.75486
head 15.8492 -3.5977 3.68364
rclavicle -1.40392e-014 5.56597e-015
rhumerus -30.3052 -9.25899 -81.4616
rradius 34.269
rwrist 5.05262
rhand -15.339 9.16966
rfingers 7.12502
rthumb 10.8377 -20.5307
lclavicle -1.40392e-014 5.56597e-015
lhumerus -29.6884 7.99257 82.1958
lradius 31.76
lwrist -4.80232
lhand -19.4017 26.6687
lfingers 7.12502
lthumb 6.91741 56.5356
rfemur -15.4096 -6.27538 15.6841
rtibia 62.193
rfoot -0.899886 -4.44488
rtoes 3.74177
lfemur -1.50613 5.40524 -27.4929
ltibia 10.2972
lfoot -5.33502 -9.39273
ltoes 8.89524
72
root -6.34175 17.9689 -6.09231 3.49181 51.8876 5.20894
lowerback 11.1267 1.12142 -2.90375
upperback 1.4072 1.15868 -0.131027
thorax -4.82215 0.636357 1.32353
lowerneck -16.0972 -6.30318 -12.0239
upperneck 35.0079 -7.35418 6.74398
head 15.8775 -3.5838 3.69981
rclavicle 3.63776e-014 -8.34896e-015
rhumerus -30.4595 -8.94134 -81.5219
rradius 34.6705
rwrist 4.74164
rhand -15.3497 9.04272
rfingers 7.12502
rthumb 10.8274 -20.6582
lclavicle 3.63776e-014 -8.34896e-015
lhumerus -29.532 8.01977 82.1352
lradius 31.8031
lwrist -4.77312
lhand -19.4858 26.8176
lfingers 7.12502
lthumb 6.83619 56.6873
rfemur -16.1884 -6.30513 15.699
rtibia 62.0079
rfoot -2.15408 -4.50196
rtoes 2.85562
lfemur -1.38435 5.08791 -27.5188
ltibia 11.0298
lfoot -5.98699 -9.03682
ltoes 8.94918
73
root -6.25991 17.9503 -6.03702 3.50586 51.9091 5.37713
lowerback 11.2863 1.0809 -2.98926
upperback 1.36913 1.08603 -0.173863
thorax -4.94829 0.603707 1.33527
lowerneck -16.0392 -6.27225 -11.7585
upperneck 34.9565 -7.31977 6.51846
head 15.8052 -3.56537 3.55977
rclavicle -4.65902e-014 8.54774e-015
rhumerus -30.5953 -8.85961 -81.5514
rradius 35.0265
rwrist 4.62671
rhand -15.404 9.04101
rfingers 7.12502
rthumb 10.7751 -20.6626
lclavicle -4.65902e-014 8.54774e-015
lhumerus -29.3927 7.654 82.1271
lradius 31.9426
lwrist -4.468
lhand -19.5151 26.7316
lfingers 7.12502
lthumb 6.80793 56.6021
rfemur -16.912 -6.35502 15.6406
rtibia 61.7581
rfoot -3.34429 -4.65073
rtoes 2.06017
lfemur -1.3294 4.98195 -27.6295
ltibia 11.9359
lfoot -6.67064 -8.84762
ltoes 9.97475
74
root -6.17849 17.9343 -5.98506 3.64978 51.9223 5.61803
lowerback 11.3244 1.03154 -3.17615
upperback 1.35654 0.99576 -0.176278
thorax -4.98162 0.563417 1.45142
lowerneck -16.0229 -6.21918 -11.671
upperneck 34.893 -7.25553 6.47386
head 15.7534 -3.53345 3.53529
rclavicle 7.67557e-014 -1.55052e-014
rhumerus -30.6162 -8.75193 -81.5016
rradius 35.323
rwrist 4.60203
rhand -15.3626 9.24146
rfingers 7.12502
rthumb 10.8151 -20.4601
lclavicle 7.67557e-014 -1.55052e-014
lhumerus -29.2818 7.41057 82.1474
lradius 32.1855
lwrist -4.19551
lhand -19.4455 26.8206
lfingers 7.12502
lthumb 6.87511 56.6889
rfemur -17.7348 -6.49519 15.5394
rtibia 61.3987
rfoot -4.41362 -4.83324
rtoes 1.23339
lfemur -1.43115 4.95872 -27.8002
ltibia 12.9679
lfoot -7.41828 -8.78684
ltoes 10.3671
75
root -6.0991 17.9118 -5.93421 3.75507 51.961 5.73686
lowerback 11.332 0.93856 -3.26242
upperback 1.34762 0.863244 -0.136325
thorax -4.99052 0.500342 1.56238
lowerneck -16.041 -6.1702 -11.7749
upperneck 34.7596 -7.19239 6.59461
head 15.6953 -3.50529 3.61302
rclavicle -1.03865e-014 1.39149e-014
rhumerus -30.5474 -8.52518 -81.4753
rradius 35.5638
rwrist 4.71098
rhand -15.4673 9.48628
rfingers 7.12502
rthumb 10.7141 -20.2205
lclavicle -1.03865e-014 1.39149e-014
lhumerus -29.132 7.31819 82.1989
lradius 32.4254
lwrist -4.01103
lhand -19.4543 27.1316
lfingers 7.12502
lthumb 6.86665 57.0003
rfemur -18.6371 -6.74912 15.5169
rtibia 60.8744
rfoot -5.34927 -5.01585
rtoes 1.96135
lfemur -1.54656 4.79633 -27.9008
ltibia 13.885
lfoot -8.08655 -8.6229
ltoes 9.80929
76
root -6.01944 17.8835 -5.88079 3.73919 51.9585 5.65586
lowerback 11.2742 0.88102 -3.19995
upperback 1.35549 0.7985 -0.104497
thorax -4.94631 0.466735 1.57124
lowerneck -16.0774 -6.15603 -11.6974
upperneck 34.6311 -7.18114 6.55782
head 15.6325 -3.49543 3.57991
rclavicle 1.1117e-013 -1.11319e-014
rhumerus -30.4609 -8.26832 -81.5153
rradius 35.7537
rwrist 4.68941
rhand -15.6929 9.58929
rfingers 7.12502
rthumb 10.4964 -20.1286
lclavicle 1.1117e-013 -1.11319e-014
lhumerus -28.938 6.89161 82.3286
lradius 32.6987
lwrist -3.84873
lhand -19.6321 27.6354
lfingers 7.12502
lthumb 6.69502 57.5096
rfemur -19.4734 -6.80277 15.6342
rtibia 60.1698
rfoot -6.30497 -5.1653
rtoes 8.24859
lfemur -1.63739 4.78461 -27.854
ltibia 14.6611
lfoot -8.69721 -8.57333
ltoes 9.86731
